<!DOCTYPE svg PUBLIC "-//W3C//DTD SVG 1.1//EN" "http://www.w3.org/Graphics/SVG/1.1/DTD/svg11.dtd">
<!-- Uploaded to: SVG Repo, www.svgrepo.com, Transformed by: SVG Repo Mixer Tools -->
<svg fill="#000000" version="1.1" id="Layer_1" xmlns="http://www.w3.org/2000/svg" xmlns:xlink="http://www.w3.org/1999/xlink" viewBox="0 0 512 512" xml:space="preserve" width="800px" height="800px">
<g id="SVGRepo_bgCarrier" stroke-width="0"/>
<g id="SVGRepo_tracerCarrier" stroke-linecap="round" stroke-linejoin="round"/>
<g id="SVGRepo_iconCarrier"> <g> <g> <polygon points="478.609,189.217 478.609,155.826 445.217,155.826 445.217,33.391 411.826,33.391 411.826,422.957 445.217,422.957 445.217,300.522 478.609,300.522 478.609,267.13 445.217,267.13 445.217,189.217 "/> </g> </g> <g> <g> <rect x="345.043" width="66.783" height="33.391"/> </g> </g> <g> <g> <rect x="345.043" y="422.957" width="66.783" height="33.391"/> </g> </g> <g> <g> <rect x="244.87" y="66.783" width="66.783" height="33.391"/> </g> </g> <g> <g> <rect x="244.87" y="356.174" width="66.783" height="33.391"/> </g> </g> <g> <g> <polygon points="244.87,133.565 244.87,100.174 66.783,100.174 66.783,133.565 33.391,133.565 33.391,166.957 0,166.957 0,289.391 33.391,289.391 33.391,322.783 66.783,322.783 66.783,478.609 100.174,478.609 100.174,356.174 166.957,356.174 166.957,478.609 200.348,478.609 200.348,356.174 244.87,356.174 244.87,322.783 155.826,322.783 155.826,133.565 "/> </g> </g> <g> <g> <rect x="311.652" y="33.391" width="33.391" height="33.391"/> </g> </g> <g> <g> <rect x="311.652" y="389.565" width="33.391" height="33.391"/> </g> </g> <g> <g> <rect x="100.174" y="478.609" width="66.783" height="33.391"/> </g> </g> <g> <g> <rect x="478.609" y="189.217" width="33.391" height="77.913"/> </g> </g> </g>
</svg>